<svg width="119" height="107" viewBox="0 0 119 107" fill="none" xmlns="http://www.w3.org/2000/svg">
<path d="M117.138 37.1111L99.9235 15.7778C98.5385 14.2224 96.7577 13.3333 94.9769 13.3333H75.1901V8.66665C75.1901 3.77786 71.8263 0 67.671 0H7.71687C3.36384 0.000260416 0 3.77786 0 8.66691V62.2222V66.6668V85.5555C0 89.7777 3.16582 93.3334 6.92548 93.3334H10.0333C10.9782 100.926 16.7005 106.667 23.7445 106.667C30.7884 106.667 36.5107 100.926 37.4556 93.3334H71.2327H75.1901H81.266C82.2109 100.926 87.9332 106.667 94.9771 106.667C102.021 106.667 107.743 100.926 108.688 93.3334H118.721H118.919V42.2223C118.919 40.2223 118.325 38.4444 117.138 37.1111ZM113.972 40.0002C114.566 40.4447 114.764 41.3335 114.764 42.0002V48.889H85.0834V26.6669H103.089L113.972 40.0002ZM3.95745 46.6668H31.6591C32.8463 46.6668 33.6377 45.778 33.6377 44.4447C33.6377 43.1114 32.8463 42.2226 31.6591 42.2226H3.95745V35.5559H23.7442C24.9314 35.5559 25.7228 34.6671 25.7228 33.3338C25.7228 32.0005 24.9314 31.1116 23.7442 31.1116H3.95745V8.66691C3.95745 6.22238 5.54047 4.44478 7.71687 4.44478H67.4733C69.6499 4.44478 71.2327 6.44478 71.2327 8.66691V13.3336V62.2222H3.95745V46.6668ZM23.7442 102.222C18.204 102.222 13.8507 97.3334 13.8507 91.111C13.8507 84.8889 18.2038 79.9998 23.7442 79.9998C29.2845 79.9998 33.6377 84.8886 33.6377 91.111C33.6377 97.3334 29.2845 102.222 23.7442 102.222ZM71.2327 88.8889H37.4554C36.5694 81.7693 31.482 76.2805 25.0434 75.6243C24.9964 75.6193 24.9486 75.6167 24.9013 75.6123C24.7392 75.5977 24.5774 75.5826 24.4137 75.574C24.1917 75.5621 23.9687 75.5553 23.7442 75.5553C23.5198 75.5553 23.2967 75.5621 23.0748 75.574C22.9111 75.5826 22.7492 75.5975 22.5872 75.6123C22.5399 75.6167 22.4921 75.6193 22.445 75.6243C16.0065 76.2805 10.9191 81.7693 10.0331 88.8889H6.92548C5.34245 88.8889 3.95745 87.3334 3.95745 85.5555V66.6668H71.2327V88.8889ZM94.9769 102.222C89.4367 102.222 85.0834 97.3334 85.0834 91.111C85.0834 84.8889 89.4364 79.9998 94.9769 79.9998C100.517 79.9998 104.87 84.8886 104.87 91.111C104.87 97.3334 100.517 102.222 94.9769 102.222ZM108.688 88.8889C107.802 81.7693 102.715 76.2805 96.2761 75.6243C96.229 75.6193 96.1813 75.6167 96.134 75.6123C95.9719 75.5977 95.81 75.5826 95.6463 75.574C95.4244 75.5621 95.2014 75.5553 94.9769 75.5553C94.7524 75.5553 94.5294 75.5621 94.3075 75.574C94.1438 75.5826 93.9819 75.5975 93.8198 75.6123C93.7725 75.6167 93.7248 75.6193 93.6777 75.6243C87.2392 76.2805 82.1518 81.7693 81.2658 88.8889H75.1899V66.6668V62.2222V17.7778H94.9769C95.5705 17.7778 96.3619 18.2224 96.9555 18.6666L99.7916 22.2221H84.4898C82.709 22.2221 81.1259 23.9999 81.1259 25.9999V49.5554C81.1259 51.5553 82.709 53.3332 84.4898 53.3332H114.764V64.4444H104.87C103.683 64.4444 102.892 65.3332 102.892 66.6665C102.892 67.9998 103.683 68.8886 104.87 68.8886H114.764V88.8886H108.688V88.8889Z" fill="black"/>
<path d="M23.7465 86.6667C21.5699 86.6667 19.7891 88.6667 19.7891 91.1113C19.7891 93.5558 21.5699 95.5558 23.7465 95.5558C25.9231 95.5558 27.704 93.5558 27.704 91.1113C27.704 88.6667 25.9231 86.6667 23.7465 86.6667Z" fill="black"/>
<path d="M94.978 86.6667C92.8013 86.6667 91.0205 88.6667 91.0205 91.1113C91.0205 93.5558 92.8013 95.5558 94.978 95.5558C97.1546 95.5558 98.9354 93.5558 98.9354 91.1113C98.9354 88.6667 97.1546 86.6667 94.978 86.6667Z" fill="black"/>
</svg>
