<svg width="139" height="107" viewBox="0 0 139 107" fill="none" xmlns="http://www.w3.org/2000/svg">
<path d="M21.2607 72.7512L15.9355 63.3853V106.563L70.6145 106.667V102.139L21.2607 102.054V72.7512Z" fill="black"/>
<path d="M94.5036 24.9759V27.3155H99.8375V18.3797L78.1265 0H15.9355V12.525H21.2607V4.52725H72.5351V24.9796L94.5036 24.9759ZM77.8603 6.16611L94.5036 20.2596V20.4524H77.8603V6.16611Z" fill="black"/>
<path d="M130.766 31.1494L83.8779 31.1234C83.7382 31.116 83.4938 31.1012 83.1751 31.1012C79.2555 31.1012 74.668 33.096 74.668 38.7208V106.637H138.622V38.7171C138.618 33.7041 133.481 31.5721 130.766 31.1494ZM134.34 102.84H78.9412V38.7171C78.9412 37.7753 78.9412 34.8943 83.1751 34.8943C83.3803 34.8943 83.5156 34.9054 83.5374 34.9054L130.185 34.9165C130.979 35.0723 134.353 35.9065 134.353 38.7134V102.84H134.34Z" fill="black"/>
<path d="M104.072 60.6451H83.9189V65.3874H104.072V60.6451Z" fill="black"/>
<path d="M129.333 60.6451H109.172V65.3874H129.333V60.6451Z" fill="black"/>
<path d="M92.2623 69.5032H84.1523V76.7928H92.2623V69.5032Z" fill="black"/>
<path d="M104.258 69.5032H96.1396V76.7928H104.258V69.5032Z" fill="black"/>
<path d="M116.677 69.5032H108.562V76.7928H116.677V69.5032Z" fill="black"/>
<path d="M129.397 69.5032H121.287V76.7928H129.397V69.5032Z" fill="black"/>
<path d="M92.2667 79.7479H84.1523V87.0412H92.2667V79.7479Z" fill="black"/>
<path d="M104.263 79.7479H96.1396V87.0412H104.263V79.7479Z" fill="black"/>
<path d="M116.441 79.7479H108.322V87.0412H116.441V79.7479Z" fill="black"/>
<path d="M129.161 79.7479H121.051V87.0412H129.161V79.7479Z" fill="black"/>
<path d="M91.9889 89.9962H83.8789V97.2821H91.9889V89.9962Z" fill="black"/>
<path d="M103.992 89.9963H95.873V97.2822H103.992V89.9963Z" fill="black"/>
<path d="M116.677 89.9962H108.562V97.2821H116.677V89.9962Z" fill="black"/>
<path d="M129.156 89.9963H121.051V97.2822H129.156V89.9963Z" fill="black"/>
<path d="M129.335 41.257H83.8789V55.2614H129.335V41.257ZM108.619 51.9281H106.314V47.931H104.499V46.4961C104.778 46.5035 105.053 46.4813 105.319 46.4331C105.59 46.3812 105.826 46.2996 106.044 46.1847C106.258 46.0697 106.437 45.9103 106.568 45.7175C106.703 45.521 106.786 45.2799 106.799 44.9944H108.619V51.9281ZM117.711 51.9281H111.02C110.994 51.587 111.037 51.2792 111.133 50.99C111.229 50.7045 111.378 50.4449 111.574 50.2114C111.736 50.0148 111.923 49.8257 112.128 49.6552C112.342 49.4846 112.574 49.3252 112.809 49.1769C113.049 49.0211 113.298 48.884 113.56 48.7431C113.818 48.6022 114.071 48.4724 114.311 48.3426C114.403 48.287 114.516 48.2277 114.638 48.1609C114.765 48.0979 114.874 48.0237 114.983 47.9422C115.084 47.8606 115.175 47.7716 115.249 47.6715C115.328 47.5714 115.354 47.4564 115.354 47.3341C115.354 47.0152 115.262 46.7927 115.084 46.6704C114.905 46.548 114.682 46.4887 114.424 46.4887C113.975 46.4887 113.674 46.6259 113.499 46.878C113.324 47.145 113.242 47.4861 113.259 47.9088H111.168C111.138 47.4342 111.194 47.0078 111.334 46.6333C111.474 46.2625 111.688 45.9436 111.976 45.6952C112.255 45.4394 112.613 45.2429 113.032 45.1094C113.451 44.9759 113.918 44.9092 114.433 44.9092C114.896 44.9092 115.328 44.9537 115.712 45.0464C116.101 45.1353 116.437 45.2762 116.712 45.4505C116.987 45.6322 117.205 45.8584 117.349 46.1327C117.502 46.4108 117.58 46.7334 117.58 47.0968C117.58 47.5417 117.475 47.9162 117.257 48.2203C117.043 48.528 116.773 48.7913 116.437 49.0211C116.109 49.2547 115.743 49.4587 115.337 49.6441C114.939 49.8294 114.555 50.0223 114.193 50.2225V50.2336H117.694V51.9281H117.711ZM124.939 50.5228C124.839 50.7749 124.669 51.0048 124.42 51.231C124.171 51.4461 123.839 51.6352 123.42 51.7835C122.997 51.9318 122.473 52.0096 121.849 52.0096C121.273 52.0096 120.784 51.954 120.383 51.8465C119.977 51.7316 119.654 51.5944 119.396 51.4238C119.139 51.2495 118.946 51.0567 118.811 50.8491C118.671 50.6378 118.571 50.4338 118.51 50.2299C118.449 50.026 118.418 49.8406 118.418 49.6737C118.418 49.5106 118.418 49.3808 118.423 49.2955H120.531C120.513 49.67 120.618 49.9444 120.828 50.1261C120.928 50.2373 121.059 50.3189 121.221 50.3634C121.382 50.4116 121.561 50.4338 121.757 50.4338C122.072 50.4338 122.321 50.3745 122.508 50.2596C122.696 50.1446 122.783 49.9407 122.783 49.6552C122.783 49.5032 122.753 49.3771 122.692 49.2844C122.63 49.1917 122.556 49.125 122.46 49.0693C122.364 49.0137 122.251 48.9766 122.128 48.9618C122.006 48.9507 121.871 48.9359 121.753 48.9359C121.583 48.9359 121.461 48.9396 121.369 48.9544C121.277 48.9618 121.181 48.9729 121.103 48.9878V47.6344C121.181 47.6381 121.273 47.6492 121.373 47.6567C121.469 47.6678 121.596 47.6752 121.749 47.6752C121.858 47.6752 121.989 47.6678 122.107 47.6567C122.229 47.6418 122.347 47.6122 122.447 47.5677C122.547 47.5195 122.635 47.4564 122.705 47.3749C122.77 47.2933 122.796 47.1821 122.796 47.0523C122.796 46.9448 122.766 46.8484 122.705 46.7705C122.644 46.6926 122.565 46.6259 122.465 46.5814C122.373 46.5332 122.259 46.5035 122.142 46.4776C122.019 46.4553 121.897 46.4442 121.792 46.4442C121.644 46.4442 121.504 46.4627 121.365 46.4998C121.225 46.5369 121.116 46.5888 121.024 46.663C120.928 46.7408 120.854 46.8224 120.793 46.9336C120.736 47.0375 120.714 47.1672 120.719 47.3118H118.632C118.641 46.9003 118.724 46.5443 118.898 46.244C119.069 45.9436 119.304 45.6989 119.597 45.4987C119.894 45.3059 120.234 45.1613 120.614 45.0649C121.002 44.9685 121.413 44.9166 121.849 44.9166C122.412 44.9166 122.884 44.9796 123.263 45.1131C123.647 45.2466 123.949 45.3986 124.184 45.584C124.416 45.7731 124.582 45.9659 124.682 46.1735C124.782 46.3812 124.835 46.5554 124.835 46.7C124.835 47.0671 124.778 47.3489 124.673 47.5454C124.568 47.7419 124.451 47.8865 124.324 47.9792C124.197 48.0719 124.075 48.1276 123.966 48.1461C123.866 48.1683 123.809 48.1832 123.809 48.1906V48.2017C123.809 48.2128 123.839 48.2277 123.901 48.2388C123.962 48.2499 124.04 48.2796 124.132 48.3167C124.224 48.3537 124.328 48.4056 124.442 48.4687C124.551 48.5317 124.651 48.6207 124.743 48.7393C124.835 48.8543 124.918 48.9989 124.974 49.1806C125.035 49.3511 125.066 49.5699 125.066 49.8294C125.092 50.0371 125.044 50.2707 124.939 50.5228Z" fill="black"/>
<path d="M50.0645 93.7338L49.8244 71.7205L26.3282 30.1187L26.3631 30.1076L18.8118 16.7891L0.378906 24.3271L7.93017 37.6456L7.95636 37.6382L31.3478 78.9025L50.0645 93.7338ZM39.0911 78.7283L39.6411 74.0342L44.6782 76.4443L47.1574 70.5636L47.93 71.917L48.0566 84.4828L43.4909 86.3516L32.9846 78.0683L31.9196 76.1847L39.0911 78.7283ZM8.2619 30.7676L5.46837 25.8436L17.0353 21.1161L19.8332 26.0438L8.2619 30.7676Z" fill="black"/>
</svg>
