<svg width="70" height="70" viewBox="0 0 95 88" fill="none" xmlns="http://www.w3.org/2000/svg">
<path d="M69.3174 18.6262C69.2386 18.6262 69.1598 18.6262 69.081 18.5966L30.11 4.30064L30.0049 4.65656L29.8211 4.3303L10.4669 17.9737C10.2831 18.0924 10.073 18.1517 9.86288 18.0924C9.6528 18.033 9.49523 17.8847 9.36393 17.7068C9.25889 17.4992 9.20636 17.2619 9.25889 17.0246C9.31141 16.7873 9.44271 16.6094 9.62654 16.4907L29.2171 2.66937C29.3484 2.58039 29.4797 2.55073 29.611 2.52107L29.7423 2.10583L29.9524 2.49141C30.0837 2.46175 30.215 2.46175 30.3726 2.52107L69.58 16.906C69.7901 16.9653 69.9476 17.1432 70.0264 17.3509C70.1315 17.5585 70.1315 17.7958 70.0789 18.033C69.9739 18.389 69.6588 18.6262 69.3174 18.6262Z" fill="#8E8E8E"/>
<path d="M80.2675 25.5073C80.4251 25.5073 80.5301 25.6259 80.5301 25.8039V39.4473C80.5301 39.6252 80.4251 39.7439 80.2675 39.7439C80.1099 39.7439 80.0049 39.6252 80.0049 39.4473V25.8039C80.0049 25.6259 80.1099 25.5073 80.2675 25.5073Z" fill="url(#paint0_linear_613_651)"/>
<path d="M80.2673 40.337C79.8209 40.337 79.4795 39.9515 79.4795 39.4473V25.8039C79.4795 25.2996 79.8209 24.9141 80.2673 24.9141C80.7138 24.9141 81.0551 25.2996 81.0551 25.8039V39.4473C81.0551 39.9515 80.7138 40.337 80.2673 40.337Z" fill="url(#paint1_linear_613_651)"/>
<path d="M29.6628 34.8797L26.6953 31.5281L29.6628 28.1766L32.6303 31.5281L29.6628 34.8797ZM28.1922 31.5281L29.689 33.2187L31.1859 31.5281L29.689 29.8375L28.1922 31.5281Z" fill="white"/>
<path d="M29.6628 39.9218L26.6953 36.5703L29.6628 33.2188L32.6303 36.5703L29.6628 39.9218ZM28.1922 36.5703L29.689 38.2609L31.1859 36.5703L29.689 34.8797L28.1922 36.5703Z" fill="white"/>
<path d="M29.8473 0.593201C30.425 0.593201 30.8977 1.12707 30.8977 1.77958C30.8977 2.4321 30.425 2.96597 29.8473 2.96597C29.2696 2.96597 28.7969 2.4321 28.7969 1.77958C28.7969 1.12707 29.2696 0.593201 29.8473 0.593201Z" fill="#8E8E8E"/>
<path d="M29.8471 3.55915C28.9805 3.55915 28.2715 2.75834 28.2715 1.77958C28.2715 0.800809 28.9805 0 29.8471 0C30.7137 0 31.4228 0.800809 31.4228 1.77958C31.4228 2.75834 30.7137 3.55915 29.8471 3.55915ZM29.8471 1.18638C29.5583 1.18638 29.3219 1.45332 29.3219 1.77958C29.3219 2.10583 29.5583 2.37277 29.8471 2.37277C30.136 2.37277 30.3723 2.10583 30.3723 1.77958C30.3723 1.45332 30.136 1.18638 29.8471 1.18638Z" fill="#8E8E8E"/>
<path d="M29.8466 2.96597L32.9979 21.6515H26.6953L29.8466 2.96597Z" fill="#D9D9D9"/>
<path d="M33.6285 22.2447H26.0654L29.3218 2.84732H30.3722L33.6285 22.2447ZM27.3259 21.0583H32.368L29.847 6.13954L27.3259 21.0583Z" fill="#8E8E8E"/>
<path d="M27.2206 42.4132C26.6429 42.4132 26.1702 41.8793 26.1702 41.2268V29.363H25.1198C24.542 29.363 24.0693 28.8291 24.0693 28.1766C24.0693 27.5241 24.542 26.9902 25.1198 26.9902H26.1702V25.8038H25.1198C24.542 25.8038 24.0693 25.27 24.0693 24.6175C24.0693 23.9649 24.542 23.4311 25.1198 23.4311H26.1702V21.0583C26.1702 20.4058 26.6429 19.8719 27.2206 19.8719C27.7984 19.8719 28.2711 20.4058 28.2711 21.0583V23.4311H31.4224V21.0583C31.4224 20.4058 31.8951 19.8719 32.4728 19.8719C33.0505 19.8719 33.5232 20.4058 33.5232 21.0583V23.4311H34.5737C35.1514 23.4311 35.6241 23.9649 35.6241 24.6175C35.6241 25.27 35.1514 25.8038 34.5737 25.8038H33.5232V26.9902H34.5737C35.1514 26.9902 35.6241 27.5241 35.6241 28.1766C35.6241 28.8291 35.1514 29.363 34.5737 29.363H33.5232V38.8541C33.5232 39.5066 33.0505 40.0404 32.4728 40.0404C31.8951 40.0404 31.4224 39.5066 31.4224 38.8541V29.363H28.2711V41.2268C28.2711 41.8793 27.7984 42.4132 27.2206 42.4132ZM27.2206 28.1766V41.2268V28.1766ZM27.2206 28.1766H32.4728V38.8541V24.6175V28.1766H27.2206ZM25.1198 28.1766H27.2206H25.1198ZM28.2711 26.9902H31.4224V25.8038H28.2711V26.9902ZM25.1198 24.6175H27.2206H25.1198Z" fill="url(#paint2_linear_613_651)"/>
<path d="M91.0346 22.2447H12.2522C11.6744 22.2447 11.2017 21.7108 11.2017 21.0583C11.2017 20.4058 11.6744 19.8719 12.2522 19.8719H91.0346C91.6124 19.8719 92.0851 20.4058 92.0851 21.0583C92.0851 21.7108 91.6124 22.2447 91.0346 22.2447ZM86.8329 18.6855H8.05043C7.47269 18.6855 7 18.1517 7 17.4992C7 16.8466 7.47269 16.3128 8.05043 16.3128H86.8329C87.4106 16.3128 87.8833 16.8466 87.8833 17.4992C87.8833 18.1517 87.4106 18.6855 86.8329 18.6855Z" fill="#D9D9D9"/>
<path d="M76.329 22.8379H84.2073C84.3648 22.8379 84.4699 22.9565 84.4699 23.1345C84.4699 23.3124 84.3648 23.4311 84.2073 23.4311H76.329C76.1714 23.4311 76.0664 23.3124 76.0664 23.1345C76.0664 22.9565 76.1714 22.8379 76.329 22.8379ZM77.3794 24.0243H83.1568C83.3144 24.0243 83.4194 24.1429 83.4194 24.3209C83.4194 24.4988 83.3144 24.6175 83.1568 24.6175H77.3794C77.2219 24.6175 77.1168 24.4988 77.1168 24.3209C77.1168 24.1429 77.2219 24.0243 77.3794 24.0243ZM78.4299 25.2107H82.1064C82.264 25.2107 82.369 25.3293 82.369 25.5073C82.369 25.6852 82.264 25.8038 82.1064 25.8038H78.4299C78.2723 25.8038 78.1673 25.6852 78.1673 25.5073C78.1673 25.3293 78.2723 25.2107 78.4299 25.2107Z" fill="#EBEBEB"/>
<path d="M82.1062 26.397H78.4297C77.9833 26.397 77.6419 26.0115 77.6419 25.5072C77.6419 25.3886 77.6681 25.2996 77.6944 25.2106H77.3793C76.9328 25.2106 76.5914 24.8251 76.5914 24.3209C76.5914 24.2022 76.6177 24.1132 76.644 24.0243H76.3288C75.8824 24.0243 75.541 23.6387 75.541 23.1345C75.541 22.6303 75.8824 22.2447 76.3288 22.2447H84.2071C84.6535 22.2447 84.9949 22.6303 84.9949 23.1345C84.9949 23.6387 84.6535 24.0243 84.2071 24.0243H83.892C83.9182 24.1132 83.9445 24.2022 83.9445 24.3209C83.9445 24.8251 83.6031 25.2106 83.1567 25.2106H82.8415C82.8678 25.2996 82.894 25.3886 82.894 25.5072C82.894 26.0115 82.5527 26.397 82.1062 26.397Z" fill="#EBEBEB"/>
<path d="M39.3008 56.0566H49.8051V70.2932H39.3008V56.0566Z" fill="white"/>
<path d="M54.0068 56.0566H64.5112V70.2932H54.0068V56.0566Z" fill="white"/>
<path d="M87.8875 51.1004H77.8559C77.567 51.1004 77.3044 51.2191 77.1206 51.4564C76.9367 51.664 76.8054 51.9606 76.8054 52.2868V68.8962C76.8054 69.5487 77.2781 70.0826 77.8559 70.0826C78.4336 70.0826 78.9063 69.5487 78.9063 68.8962V53.4732H93.6124C93.8224 53.4732 94.0063 53.3546 94.0851 53.147C94.2426 52.8504 94.1376 52.4648 93.875 52.2868L51.5951 25L9.28887 52.2868C9.10504 52.4055 9 52.6131 9 52.8207C9 53.1766 9.26261 53.4435 9.55148 53.4435H24.2838V68.8665C24.2838 69.519 24.7565 70.0529 25.3342 70.0529C25.912 70.0529 26.3847 69.519 26.3847 68.8665V52.2572C26.3847 51.9309 26.2796 51.6343 26.0695 51.4267C25.8857 51.2191 25.6231 51.0708 25.3342 51.0708H15.3026L51.5951 27.3728L87.8875 51.1004Z" fill="white"/>
<mask id="mask0_613_651" style="mask-type:alpha" maskUnits="userSpaceOnUse" x="9" y="32" width="31" height="39">
<path d="M9.36328 32.3289H39.3006V70.2932H9.36328V32.3289Z" fill="white"/>
</mask>
<g mask="url(#mask0_613_651)">
<path d="M87.8613 52.1004H77.8296C77.5407 52.1004 77.2781 52.2191 77.0943 52.4564C76.9105 52.664 76.7792 52.9606 76.7792 53.2868V69.8962C76.7792 70.5487 77.2519 71.0826 77.8296 71.0826C78.4074 71.0826 78.8801 70.5487 78.8801 69.8962V54.4732H93.5861C93.7962 54.4732 93.98 54.3546 94.0588 54.147C94.2164 53.8504 94.1113 53.4648 93.8487 53.2868L51.5688 26L9.28887 53.2868C9.10504 53.4055 9 53.6131 9 53.8207C9 54.1766 9.26261 54.4435 9.55148 54.4435H24.2575V69.8665C24.2575 70.519 24.7302 71.0529 25.308 71.0529C25.8857 71.0529 26.3584 70.519 26.3584 69.8665V53.2572C26.3584 52.9309 26.2534 52.6343 26.0433 52.4267C25.8594 52.2191 25.5968 52.0708 25.308 52.0708H15.2763L51.5688 28.3431L87.8613 52.1004Z" fill="#8E8E8E"/>
</g>
<path d="M15.8877 80.209C15.6191 80.3262 15.375 80.436 15.1553 80.5386C14.9404 80.6411 14.6572 80.7485 14.3057 80.8608C14.0078 80.9536 13.6831 81.0317 13.3315 81.0952C12.9849 81.1636 12.6016 81.1978 12.1816 81.1978C11.3906 81.1978 10.6704 81.0879 10.021 80.8682C9.37646 80.6436 8.81494 80.2944 8.33643 79.8208C7.86768 79.3569 7.50146 78.7686 7.23779 78.0557C6.97412 77.3379 6.84229 76.5054 6.84229 75.5581C6.84229 74.6597 6.96924 73.8564 7.22314 73.1484C7.47705 72.4404 7.84326 71.8423 8.32178 71.354C8.78564 70.8804 9.34473 70.519 9.99902 70.27C10.6582 70.021 11.3882 69.8965 12.189 69.8965C12.7749 69.8965 13.3584 69.9673 13.9395 70.1089C14.5254 70.2505 15.1748 70.4995 15.8877 70.856V72.5771H15.7778C15.1772 72.0742 14.5815 71.708 13.9907 71.4785C13.3999 71.249 12.7676 71.1343 12.0938 71.1343C11.542 71.1343 11.0439 71.2246 10.5996 71.4053C10.1602 71.5811 9.76709 71.8569 9.42041 72.2329C9.0835 72.5991 8.81982 73.063 8.62939 73.6245C8.44385 74.1812 8.35107 74.8257 8.35107 75.5581C8.35107 76.3247 8.45361 76.9839 8.65869 77.5356C8.86865 78.0874 9.13721 78.5366 9.46436 78.8833C9.80615 79.2446 10.2041 79.5132 10.6582 79.689C11.1172 79.8599 11.6006 79.9453 12.1084 79.9453C12.8066 79.9453 13.4609 79.8257 14.0713 79.5864C14.6816 79.3472 15.2529 78.9883 15.7852 78.5098H15.8877V80.209ZM24.8268 77.0522H18.7989C18.7989 77.5552 18.8746 77.9946 19.026 78.3706C19.1773 78.7417 19.3849 79.0469 19.6485 79.2861C19.9024 79.5205 20.2027 79.6963 20.5494 79.8135C20.901 79.9307 21.2867 79.9893 21.7066 79.9893C22.2633 79.9893 22.8224 79.8794 23.3839 79.6597C23.9503 79.4351 24.3531 79.2153 24.5924 79.0005H24.6656V80.502C24.2018 80.6973 23.7281 80.8608 23.2447 80.9927C22.7613 81.1245 22.2535 81.1904 21.7213 81.1904C20.3639 81.1904 19.3043 80.8242 18.5426 80.0918C17.7809 79.3545 17.4 78.3096 17.4 76.957C17.4 75.6191 17.7638 74.5571 18.4913 73.771C19.2237 72.9849 20.1856 72.5918 21.3771 72.5918C22.4806 72.5918 23.3302 72.9141 23.9259 73.5586C24.5265 74.2031 24.8268 75.1187 24.8268 76.3052V77.0522ZM23.4864 75.9976C23.4815 75.2749 23.2984 74.7158 22.9371 74.3203C22.5807 73.9248 22.0362 73.7271 21.3038 73.7271C20.5665 73.7271 19.9781 73.9443 19.5387 74.3789C19.1041 74.8135 18.8575 75.353 18.7989 75.9976H23.4864ZM33.8171 78.5244C33.8171 78.9199 33.7365 79.2715 33.5754 79.5791C33.4191 79.8867 33.2019 80.1431 32.9235 80.3481C32.611 80.5776 32.2692 80.7437 31.8981 80.8462C31.5319 80.9487 31.0485 81 30.4479 81H27.0642V72.8188H30.2282C30.8386 72.8188 31.2976 72.8408 31.6052 72.8848C31.9177 72.9238 32.2106 73.0142 32.4841 73.1558C32.7917 73.3169 33.0163 73.5269 33.1579 73.7856C33.3044 74.0444 33.3776 74.3496 33.3776 74.7012C33.3776 75.1064 33.2629 75.458 33.0334 75.7559C32.8039 76.0537 32.5085 76.2856 32.1472 76.4517V76.5249C32.6306 76.6421 33.0285 76.8691 33.341 77.2061C33.6584 77.5381 33.8171 77.9775 33.8171 78.5244ZM31.9641 74.9136C31.9641 74.7378 31.925 74.5791 31.8469 74.4375C31.7736 74.2959 31.6589 74.186 31.5026 74.1079C31.2976 74.0054 31.0656 73.9492 30.8068 73.9395C30.5529 73.9248 30.238 73.9175 29.862 73.9175H28.4265V76.1587H30.1477C30.509 76.1587 30.7751 76.1465 30.946 76.1221C31.1218 76.0928 31.2976 76.0244 31.4733 75.917C31.6589 75.7998 31.7858 75.6631 31.8542 75.5068C31.9274 75.3457 31.9641 75.1479 31.9641 74.9136ZM32.3962 78.5317C32.3962 78.2632 32.3522 78.0459 32.2644 77.8799C32.1765 77.709 31.9836 77.5527 31.6857 77.4111C31.5002 77.3232 31.3 77.272 31.0852 77.2573C30.8703 77.2378 30.5725 77.228 30.1916 77.228H28.4265V79.9014H29.7302C30.2771 79.9014 30.697 79.8843 30.9899 79.8501C31.2878 79.811 31.5441 79.7305 31.759 79.6084C31.9738 79.4863 32.1325 79.3374 32.2351 79.1616C32.3425 78.9858 32.3962 78.7759 32.3962 78.5317ZM42.9832 77.0522H36.9554C36.9554 77.5552 37.0311 77.9946 37.1824 78.3706C37.3338 78.7417 37.5413 79.0469 37.805 79.2861C38.0589 79.5205 38.3592 79.6963 38.7059 79.8135C39.0574 79.9307 39.4432 79.9893 39.8631 79.9893C40.4197 79.9893 40.9788 79.8794 41.5403 79.6597C42.1067 79.4351 42.5096 79.2153 42.7488 79.0005H42.8221V80.502C42.3582 80.6973 41.8846 80.8608 41.4012 80.9927C40.9178 81.1245 40.41 81.1904 39.8777 81.1904C38.5203 81.1904 37.4607 80.8242 36.699 80.0918C35.9373 79.3545 35.5564 78.3096 35.5564 76.957C35.5564 75.6191 35.9202 74.5571 36.6478 73.771C37.3802 72.9849 38.3421 72.5918 39.5335 72.5918C40.637 72.5918 41.4866 72.9141 42.0823 73.5586C42.6829 74.2031 42.9832 75.1187 42.9832 76.3052V77.0522ZM41.6429 75.9976C41.638 75.2749 41.4549 74.7158 41.0936 74.3203C40.7371 73.9248 40.1927 73.7271 39.4603 73.7271C38.7229 73.7271 38.1346 73.9443 37.6951 74.3789C37.2605 74.8135 37.014 75.353 36.9554 75.9976H41.6429ZM52.4203 76.8105C52.4203 77.4746 52.3251 78.0825 52.1347 78.6343C51.9442 79.1812 51.6757 79.645 51.329 80.0259C51.0067 80.3872 50.6259 80.668 50.1864 80.8682C49.7519 81.0635 49.2904 81.1611 48.8021 81.1611C48.3773 81.1611 47.9916 81.1147 47.6449 81.022C47.3031 80.9292 46.954 80.7852 46.5976 80.5898V84.0176H45.2206V72.8188H46.5976V73.6758C46.9638 73.3682 47.3739 73.1118 47.828 72.9067C48.287 72.6968 48.7753 72.5918 49.2929 72.5918C50.2792 72.5918 51.0458 72.9653 51.5927 73.7124C52.1444 74.4546 52.4203 75.4873 52.4203 76.8105ZM50.9994 76.8472C50.9994 75.8608 50.831 75.1235 50.494 74.6353C50.1571 74.147 49.6395 73.9028 48.9413 73.9028C48.5458 73.9028 48.1479 73.9883 47.7475 74.1592C47.3471 74.3301 46.9638 74.5547 46.5976 74.833V79.4692C46.9882 79.645 47.3227 79.7646 47.601 79.8281C47.8842 79.8916 48.204 79.9233 48.5604 79.9233C49.327 79.9233 49.9252 79.6646 50.3549 79.147C50.7846 78.6294 50.9994 77.8628 50.9994 76.8472ZM61.0005 81H59.6235V77.7554H58.0049L55.4707 81H53.8521L56.606 77.6235C55.8979 77.4282 55.3804 77.1304 55.0532 76.73C54.7261 76.3247 54.5625 75.7949 54.5625 75.1406C54.5625 74.7061 54.6602 74.3374 54.8555 74.0347C55.0508 73.7319 55.2974 73.4854 55.5952 73.2949C55.8882 73.1094 56.2251 72.9849 56.606 72.9214C56.9868 72.853 57.4019 72.8188 57.8511 72.8188H61.0005V81ZM59.6235 76.6714V73.9175H57.8877C57.5117 73.9175 57.2407 73.9297 57.0747 73.9541C56.9087 73.9785 56.728 74.0444 56.5327 74.1519C56.3423 74.2593 56.2007 74.4058 56.1079 74.5913C56.02 74.772 55.9761 74.9697 55.9761 75.1846C55.9761 75.4531 56.0029 75.6704 56.0566 75.8364C56.1152 76.0024 56.2324 76.1587 56.4082 76.3052C56.5889 76.4468 56.8086 76.5444 57.0674 76.5981C57.3262 76.647 57.6143 76.6714 57.9316 76.6714H59.6235ZM70.7086 81H69.3316V77.3159H65.2374V81H63.8605V72.8188H65.2374V76.1294H69.3316V72.8188H70.7086V81ZM80.468 81H79.1057V74.855L74.821 81H73.5759V72.8188H74.9382V78.876L79.1789 72.8188H80.468V81ZM91.7874 81H90.3372V75.6606H84.8953V81H83.4451V70.0942H84.8953V74.3716H90.3372V70.0942H91.7874V81Z" fill="white"/>
<defs>
<linearGradient id="paint0_linear_613_651" x1="80.2675" y1="25.5073" x2="80.2675" y2="39.7439" gradientUnits="userSpaceOnUse">
<stop stop-color="white" stop-opacity="0"/>
<stop offset="0.0001" stop-color="white" stop-opacity="0.236364"/>
<stop offset="0.286458" stop-color="white"/>
</linearGradient>
<linearGradient id="paint1_linear_613_651" x1="80.2673" y1="24.9141" x2="80.2673" y2="40.337" gradientUnits="userSpaceOnUse">
<stop stop-color="white" stop-opacity="0"/>
<stop offset="0.0001" stop-color="white" stop-opacity="0.236364"/>
<stop offset="0.286458" stop-color="white"/>
</linearGradient>
<linearGradient id="paint2_linear_613_651" x1="29.8467" y1="19.8719" x2="29.8467" y2="42.4132" gradientUnits="userSpaceOnUse">
<stop stop-color="white" stop-opacity="0"/>
<stop offset="0.270833" stop-color="white"/>
</linearGradient>
</defs>
</svg>
