<svg width="103" height="100" viewBox="0 0 103 100" fill="none" xmlns="http://www.w3.org/2000/svg">
<path d="M29.6426 45.9799C29.6426 46.8715 30.0256 47.7082 30.7187 48.3365L32.0149 49.5148C33.7473 51.088 36.0464 51.9548 38.4956 51.9548C40.945 51.9548 43.2457 51.0882 44.9782 49.5148L54.1101 41.2131C57.7272 43.9598 62.2427 45.4547 67.0094 45.4547H67.0187C72.4067 45.4514 77.4778 43.5397 81.293 40.0698C82.0099 39.4182 82.0099 38.3631 81.293 37.7131C80.576 37.0614 79.4174 37.0614 78.7007 37.7131C75.5767 40.5532 71.4261 42.1197 67.0169 42.1215H67.0113C62.6058 42.1215 58.4645 40.5616 55.3495 37.7299C54.6326 37.0799 53.4722 37.0799 52.7572 37.7299L42.3842 47.1582C40.3088 49.0464 36.6845 49.0464 34.6074 47.1582L33.3112 45.9799L55.3495 25.9451C57.4047 24.0767 59.3572 24.0767 61.8302 24.0767C64.4775 24.0767 67.7758 24.0767 70.9051 21.2318L76.0897 16.5168C76.8064 15.8653 76.8064 14.8102 76.0897 14.1602C75.3747 13.5084 74.2141 13.5084 73.4974 14.1602L68.3129 18.8752C66.256 20.7435 64.3035 20.7435 61.8302 20.7435C59.1829 20.7435 55.8866 20.7435 52.7572 23.5884L30.7204 43.6215C30.0256 44.2516 29.6426 45.0883 29.6426 45.9799Z" fill="black"/>
<path d="M16.8337 18.3335C18.8558 18.3335 20.5004 16.8386 20.5004 15.0001C20.5004 13.1619 18.856 11.6667 16.8337 11.6667C14.8116 11.6667 13.167 13.1617 13.167 15.0001C13.167 16.8386 14.8116 18.3335 16.8337 18.3335Z" fill="black"/>
<path d="M34.6075 23.5885L39.7921 28.3017C40.1513 28.6285 40.6207 28.79 41.0882 28.79C41.5577 28.79 42.0269 28.6283 42.3844 28.3017C43.1013 27.6517 43.1013 26.5966 42.3844 25.9451L37.1998 21.2318C36.4848 20.5803 35.3242 20.5803 34.6075 21.2318C33.8925 21.8818 33.8925 22.9367 34.6075 23.5885Z" fill="black"/>
<path d="M93.8327 11.6669C95.8531 11.6669 97.4994 10.172 97.4994 8.33349C97.4994 6.49523 95.8531 5.00012 93.8327 5.00012C91.8123 5.00012 90.166 6.49503 90.166 8.33349C90.166 10.1718 91.8123 11.6669 93.8327 11.6669Z" fill="black"/>
<path d="M98.0367 35.4884C95.0575 38.1968 94.0347 42.6083 93.0464 46.8751C92.17 50.6617 91.2626 54.5801 89.0553 56.5867L86.4611 58.9433C85.7461 59.5951 85.7461 60.6499 86.4611 61.2999C86.8203 61.6267 87.2897 61.7882 87.7591 61.7882C88.2266 61.7882 88.696 61.6265 89.0553 61.2999L91.6476 58.9433C94.6248 56.2367 95.646 51.8268 96.6342 47.5618C97.5123 43.7718 98.4217 39.8534 100.629 37.8452C101.346 37.1952 101.346 36.1402 100.629 35.4886C99.9123 34.8367 98.7537 34.8367 98.0367 35.4884Z" fill="black"/>
<path d="M109.796 35.4884L79.9251 8.33353L85.9622 2.84529C86.6791 2.19354 86.6791 1.14023 85.9622 0.488668C85.2453 -0.162889 84.0866 -0.162889 83.3699 0.488668L76.0367 7.15522C75.3198 7.80697 75.3198 8.86028 76.0367 9.51184L107.203 37.845C107.561 38.17 108.03 38.3333 108.499 38.3333C108.969 38.3333 109.438 38.17 109.796 37.845C110.512 37.1933 110.512 36.1399 109.796 35.4884Z" fill="black"/>
<path d="M68.3129 49.5149C67.5959 48.8649 66.4373 48.8649 65.7206 49.5149C65.0039 50.1666 65.0039 51.2215 65.7206 51.8732L85.1648 69.5499C86.5948 70.8498 86.5948 72.9649 85.1648 74.2649C83.7385 75.5615 81.4103 75.5631 79.9783 74.2649L60.5341 56.5867C59.8171 55.9349 58.6568 55.9349 57.9418 56.5867C57.2249 57.2384 57.2249 58.2933 57.9418 58.9433L82.5723 81.3347C84.0023 82.6347 84.0023 84.7497 82.5723 86.048C81.1424 87.3462 78.8178 87.3497 77.3858 86.0495L54.0534 64.8364C53.3364 64.1847 52.1761 64.1847 51.4611 64.8364C50.7441 65.4864 50.7441 66.5415 51.4611 67.193L72.2015 86.048C73.6315 87.348 73.6315 89.463 72.2015 90.763C70.8155 92.0229 68.4029 92.0229 67.0169 90.7614L64.4227 88.4048H64.4208L47.5707 73.0865C46.8538 72.435 45.6934 72.435 44.9784 73.0865C44.2617 73.7365 44.2617 74.7916 44.9784 75.4432L61.8302 90.763C62.5233 91.393 62.9046 92.2296 62.9046 93.1213C62.9046 94.0114 62.5233 94.8481 61.8302 95.478C60.4039 96.7746 58.0756 96.778 56.6456 95.4762L25.4628 67.1548C20.709 62.8331 19.6769 57.3849 18.7658 52.5766C17.9994 48.5317 17.2752 44.7116 14.4629 42.155C13.746 41.5032 12.5873 41.5032 11.8706 42.155C11.1539 42.8067 11.1537 43.86 11.8706 44.5116C13.8598 46.32 14.4593 49.4815 15.1523 53.1431C16.1056 58.1765 17.2937 64.4413 22.8705 69.5114L54.0534 97.8346C55.4814 99.1328 57.3589 99.7846 59.2379 99.7846C61.1152 99.7828 62.9944 99.1328 64.4225 97.8346C65.4638 96.8864 66.155 95.7045 66.4336 94.418C69.1213 95.5963 72.6211 95.0981 74.7936 93.1198C75.8366 92.1715 76.526 90.9882 76.8047 89.7015C79.5308 90.8915 82.9077 90.4565 85.1646 88.4048C88.0246 85.8066 88.0246 81.5781 85.1646 78.9781L84.4698 78.3447C85.6742 78.0531 86.8146 77.4781 87.7589 76.6215C90.6169 74.0215 90.6169 69.7914 87.7589 67.1932L68.3129 49.5149Z" fill="black"/>
<path d="M34.6293 13.8217L23.6294 3.82182C22.9127 3.17007 21.7538 3.17007 21.0371 3.82182C20.3202 4.47338 20.3202 5.52689 21.0371 6.17844L30.7409 15.0001L0.870543 42.1549C0.15383 42.8067 0.15383 43.86 0.870543 44.5115C1.22804 44.8365 1.69747 44.9998 2.16668 44.9998C2.6359 44.9998 3.10533 44.8365 3.46283 44.5115L34.6293 16.1786C35.3462 15.5268 35.3462 14.4735 34.6293 13.8217Z" fill="black"/>
<path d="M45.424 96.3579C44.4028 96.8446 42.6594 96.9028 41.0883 95.4778C39.5171 94.0477 39.53 92.3862 40.0396 91.6628C40.5456 90.9462 40.3769 89.9995 39.6454 89.4646C38.9175 88.9296 37.8635 88.9796 37.1998 89.5845C35.7679 90.8845 33.4397 90.8827 32.0133 89.5845C30.5853 88.2845 30.5853 86.1695 32.0133 84.8695C32.3728 84.5445 32.5504 84.1177 32.5504 83.6912C32.5504 83.2646 32.3725 82.8394 32.0133 82.5129C31.2983 81.8629 30.1378 81.8629 29.421 82.5129L28.1249 83.6912C26.6968 84.9912 24.3684 84.9912 22.9403 83.6912C21.5123 82.3912 21.5123 80.2762 22.9403 78.9779L24.2365 77.7996C24.8892 77.208 24.9551 76.268 24.3942 75.6047C23.8332 74.9414 22.8157 74.7598 22.0219 75.178C21.0246 75.7012 19.27 75.6397 17.7558 74.2647C16.1462 72.8014 16.1535 71.1797 16.6723 70.4963C17.2479 69.7397 17.0371 68.7014 16.2048 68.178C15.3706 67.653 14.2304 67.8446 13.6546 68.603C12.1716 70.5563 12.2118 73.9379 15.1635 76.6213C16.3258 77.6764 17.5908 78.3062 18.8375 78.608C18.4194 79.4547 18.1994 80.3797 18.1994 81.3347C18.1994 83.1148 18.9621 84.7898 20.3481 86.048C22.229 87.7597 24.8892 88.3446 27.3036 87.803C27.4466 89.313 28.1524 90.788 29.421 91.9413C31.2453 93.5979 33.7935 94.1979 36.1439 93.7446C36.3712 95.1247 37.1064 96.5696 38.496 97.8346C40.1917 99.3746 42.1717 99.9912 43.9794 99.9912C45.14 99.9912 46.2288 99.7362 47.1253 99.3096C48.0219 98.8828 48.3684 97.8762 47.8972 97.0596C47.4278 96.2461 46.3169 95.9295 45.424 96.3579Z" fill="black"/>
</svg>
