<svg width="92" height="84" viewBox="0 0 92 84" fill="none" xmlns="http://www.w3.org/2000/svg">
<path d="M34.745 83.3918C33.6157 83.979 32.1758 83.5948 31.5748 82.5459L25.544 72.0216L12.6258 71.3557C11.3359 71.2892 10.3615 70.2672 10.4723 69.0971L11.5954 57.2336L1.10473 50.2488C0.0685531 49.5589 -0.141729 48.2297 0.638596 47.3023L8.56641 37.8804L3.84878 26.7861C3.38467 25.6946 4.0001 24.4699 5.21145 24.0742L17.4105 20.0899L19.9706 8.42277C20.2243 7.26645 21.4822 6.53183 22.7445 6.80271L35.3388 9.50536L44.3472 0.973991C45.2491 0.119835 46.7518 0.119835 47.6537 0.973991L56.6621 9.50536L69.2565 6.80271C70.5188 6.53183 71.7766 7.26645 72.0303 8.42277L74.5904 20.0899L86.7895 24.0742C88.0008 24.4699 88.6163 25.6946 88.1522 26.7861L83.4345 37.8804L91.3624 47.3023C92.1427 48.2297 91.9324 49.5589 90.8962 50.2488L80.4055 57.2336L81.5287 69.0971C81.6395 70.2672 80.665 71.2892 79.3752 71.3557L66.4569 72.0216L60.4261 82.5459C59.8251 83.5948 58.3853 83.979 57.256 83.3918L46.0005 77.5396L34.745 83.3918ZM34.5384 78.6992L44.8627 73.3312C45.5676 72.9646 46.4333 72.9646 47.1382 73.3312L57.4625 78.6992L62.994 69.0462C63.3673 68.3949 64.0902 67.9703 64.8967 67.9287L76.7599 67.3172L75.7286 56.4237C75.66 55.6989 76.0122 54.9941 76.6577 54.5643L86.3003 48.1442L79.0136 39.4843C78.5288 38.908 78.4086 38.144 78.6963 37.4673L83.0308 27.274L71.8216 23.613C71.0651 23.3659 70.5063 22.7766 70.3491 22.0599L67.9998 11.3536L56.4416 13.8339C55.6523 14.0032 54.8234 13.7808 54.2618 13.249L46.0005 5.42511L37.7391 13.249C37.1775 13.7808 36.3486 14.0032 35.5594 13.8339L24.0011 11.3536L21.6519 22.0599C21.4946 22.7766 20.9358 23.3659 20.1793 23.613L8.97015 27.274L13.3046 37.4673C13.5924 38.144 13.4722 38.908 12.9873 39.4843L5.70068 48.1442L15.3432 54.5643C15.9888 54.9941 16.341 55.6989 16.2724 56.4237L15.241 67.3172L27.1042 67.9287C27.9108 67.9703 28.6337 68.3949 29.0069 69.0462L34.5384 78.6992ZM55.594 26.2058C56.3296 25.2695 57.7609 25.0527 58.7908 25.7214C59.8207 26.3902 60.0593 27.6913 59.3236 28.6276L36.4069 57.7943C35.6713 58.7306 34.24 58.9474 33.2101 58.2787C32.1802 57.6099 31.9417 56.3087 32.6773 55.3725L55.594 26.2058ZM32.2505 29.5V33.6667H36.8338V29.5H32.2505ZM32.2505 25.3334H36.8338C39.3651 25.3334 41.4171 27.1989 41.4171 29.5V33.6667C41.4171 35.9679 39.3651 37.8334 36.8338 37.8334H32.2505C29.7192 37.8334 27.6671 35.9679 27.6671 33.6667V29.5C27.6671 27.1989 29.7192 25.3334 32.2505 25.3334ZM55.1671 50.3334V54.5H59.7505V50.3334H55.1671ZM55.1671 46.1667H59.7505C62.2818 46.1667 64.3338 48.0322 64.3338 50.3334V54.5C64.3338 56.8012 62.2818 58.6667 59.7505 58.6667H55.1671C52.6358 58.6667 50.5838 56.8012 50.5838 54.5V50.3334C50.5838 48.0322 52.6358 46.1667 55.1671 46.1667Z" fill="black"/>
</svg>
